<mxfile host="app.diagrams.net" modified="2022-05-15T12:35:00.615Z" agent="5.0 (Windows NT 10.0; Win64; x64) AppleWebKit/537.36 (KHTML, like Gecko) Chrome/101.0.4951.64 Safari/537.36 Edg/101.0.1210.47" etag="snea7Co5q0jqFynutrRv" version="18.0.4" type="github">
  <diagram id="HtxfLFjV96LtqhZwu3Rr" name="Page-1">
    <mxGraphModel dx="1038" dy="539" grid="1" gridSize="10" guides="1" tooltips="1" connect="1" arrows="1" fold="1" page="1" pageScale="1" pageWidth="850" pageHeight="1100" math="0" shadow="0">
      <root>
        <mxCell id="0" />
        <mxCell id="1" parent="0" />
        <mxCell id="dyBA7OJeBolkiEJ0vb4M-5" style="rounded=0;orthogonalLoop=1;jettySize=auto;html=1;exitX=1;exitY=0.25;exitDx=0;exitDy=0;entryX=0.01;entryY=0.092;entryDx=0;entryDy=0;entryPerimeter=0;" edge="1" parent="1" source="dyBA7OJeBolkiEJ0vb4M-1" target="dyBA7OJeBolkiEJ0vb4M-2">
          <mxGeometry relative="1" as="geometry" />
        </mxCell>
        <mxCell id="dyBA7OJeBolkiEJ0vb4M-9" style="edgeStyle=none;rounded=0;orthogonalLoop=1;jettySize=auto;html=1;exitX=0.75;exitY=1;exitDx=0;exitDy=0;entryX=-0.02;entryY=0.599;entryDx=0;entryDy=0;fontSize=15;entryPerimeter=0;" edge="1" parent="1" source="dyBA7OJeBolkiEJ0vb4M-1" target="dyBA7OJeBolkiEJ0vb4M-2">
          <mxGeometry relative="1" as="geometry">
            <Array as="points">
              <mxPoint x="140" y="180" />
            </Array>
          </mxGeometry>
        </mxCell>
        <mxCell id="dyBA7OJeBolkiEJ0vb4M-1" value="&lt;font style=&quot;font-size: 15px;&quot;&gt;Khách hàng&lt;/font&gt;" style="rounded=0;whiteSpace=wrap;html=1;" vertex="1" parent="1">
          <mxGeometry x="50" y="90" width="120" height="60" as="geometry" />
        </mxCell>
        <mxCell id="dyBA7OJeBolkiEJ0vb4M-8" style="rounded=0;orthogonalLoop=1;jettySize=auto;html=1;exitX=0;exitY=0.75;exitDx=0;exitDy=0;entryX=1;entryY=0.75;entryDx=0;entryDy=0;fontSize=15;" edge="1" parent="1">
          <mxGeometry relative="1" as="geometry">
            <mxPoint x="350" y="121" as="sourcePoint" />
            <mxPoint x="170" y="121" as="targetPoint" />
          </mxGeometry>
        </mxCell>
        <mxCell id="dyBA7OJeBolkiEJ0vb4M-11" style="edgeStyle=none;rounded=0;orthogonalLoop=1;jettySize=auto;html=1;exitX=-0.01;exitY=0.881;exitDx=0;exitDy=0;entryX=0.25;entryY=1;entryDx=0;entryDy=0;fontSize=15;exitPerimeter=0;" edge="1" parent="1" source="dyBA7OJeBolkiEJ0vb4M-2" target="dyBA7OJeBolkiEJ0vb4M-1">
          <mxGeometry relative="1" as="geometry">
            <Array as="points">
              <mxPoint x="80" y="222" />
            </Array>
          </mxGeometry>
        </mxCell>
        <mxCell id="dyBA7OJeBolkiEJ0vb4M-16" style="edgeStyle=none;rounded=0;orthogonalLoop=1;jettySize=auto;html=1;exitX=1;exitY=0.25;exitDx=0;exitDy=0;fontSize=15;" edge="1" parent="1">
          <mxGeometry relative="1" as="geometry">
            <mxPoint x="510" y="100" as="sourcePoint" />
            <mxPoint x="660" y="100.5" as="targetPoint" />
          </mxGeometry>
        </mxCell>
        <mxCell id="dyBA7OJeBolkiEJ0vb4M-2" value="&lt;font style=&quot;font-size: 15px;&quot;&gt;Phần mềm&lt;/font&gt;" style="rounded=0;whiteSpace=wrap;html=1;" vertex="1" parent="1">
          <mxGeometry x="350" y="90" width="160" height="150" as="geometry" />
        </mxCell>
        <mxCell id="dyBA7OJeBolkiEJ0vb4M-14" style="edgeStyle=none;rounded=0;orthogonalLoop=1;jettySize=auto;html=1;exitX=0;exitY=0.5;exitDx=0;exitDy=0;entryX=1;entryY=0.2;entryDx=0;entryDy=0;entryPerimeter=0;fontSize=15;" edge="1" parent="1">
          <mxGeometry relative="1" as="geometry">
            <mxPoint x="660" y="119.8" as="sourcePoint" />
            <mxPoint x="510" y="119.8" as="targetPoint" />
          </mxGeometry>
        </mxCell>
        <mxCell id="dyBA7OJeBolkiEJ0vb4M-3" value="&lt;font style=&quot;font-size: 15px;&quot;&gt;Giữ xe&lt;/font&gt;" style="rounded=0;whiteSpace=wrap;html=1;" vertex="1" parent="1">
          <mxGeometry x="660" y="90" width="120" height="60" as="geometry" />
        </mxCell>
        <mxCell id="dyBA7OJeBolkiEJ0vb4M-4" value="&lt;font style=&quot;font-size: 15px;&quot;&gt;Quản trị&lt;/font&gt;" style="rounded=0;whiteSpace=wrap;html=1;" vertex="1" parent="1">
          <mxGeometry x="660" y="180" width="120" height="60" as="geometry" />
        </mxCell>
        <mxCell id="dyBA7OJeBolkiEJ0vb4M-6" value="Phục vụ món&amp;nbsp;" style="text;html=1;strokeColor=none;fillColor=none;align=center;verticalAlign=middle;whiteSpace=wrap;rounded=0;fontSize=15;" vertex="1" parent="1">
          <mxGeometry x="220" y="125" width="65" height="30" as="geometry" />
        </mxCell>
        <mxCell id="dyBA7OJeBolkiEJ0vb4M-7" value="Đặt món" style="text;html=1;strokeColor=none;fillColor=none;align=center;verticalAlign=middle;whiteSpace=wrap;rounded=0;fontSize=15;" vertex="1" parent="1">
          <mxGeometry x="207.5" y="70" width="90" height="30" as="geometry" />
        </mxCell>
        <mxCell id="dyBA7OJeBolkiEJ0vb4M-10" value="Yêu cầu dịch vụ" style="text;html=1;strokeColor=none;fillColor=none;align=center;verticalAlign=middle;whiteSpace=wrap;rounded=0;fontSize=15;" vertex="1" parent="1">
          <mxGeometry x="196.5" y="180" width="117.5" height="30" as="geometry" />
        </mxCell>
        <mxCell id="dyBA7OJeBolkiEJ0vb4M-12" value="Cung cấp dịch vụ" style="text;html=1;strokeColor=none;fillColor=none;align=center;verticalAlign=middle;whiteSpace=wrap;rounded=0;fontSize=15;" vertex="1" parent="1">
          <mxGeometry x="190" y="230" width="120" height="30" as="geometry" />
        </mxCell>
        <mxCell id="dyBA7OJeBolkiEJ0vb4M-17" style="edgeStyle=none;rounded=0;orthogonalLoop=1;jettySize=auto;html=1;exitX=0;exitY=0.5;exitDx=0;exitDy=0;entryX=1;entryY=0.2;entryDx=0;entryDy=0;entryPerimeter=0;fontSize=15;" edge="1" parent="1">
          <mxGeometry relative="1" as="geometry">
            <mxPoint x="660" y="209.6" as="sourcePoint" />
            <mxPoint x="510" y="209.6" as="targetPoint" />
          </mxGeometry>
        </mxCell>
        <mxCell id="dyBA7OJeBolkiEJ0vb4M-20" style="edgeStyle=none;rounded=0;orthogonalLoop=1;jettySize=auto;html=1;entryX=0;entryY=0.167;entryDx=0;entryDy=0;entryPerimeter=0;fontSize=15;" edge="1" parent="1" target="dyBA7OJeBolkiEJ0vb4M-4">
          <mxGeometry relative="1" as="geometry">
            <mxPoint x="510" y="190" as="sourcePoint" />
            <mxPoint x="660" y="191.08000000000004" as="targetPoint" />
          </mxGeometry>
        </mxCell>
        <mxCell id="dyBA7OJeBolkiEJ0vb4M-21" value="Gửi xe" style="text;html=1;strokeColor=none;fillColor=none;align=center;verticalAlign=middle;whiteSpace=wrap;rounded=0;fontSize=15;" vertex="1" parent="1">
          <mxGeometry x="550" y="70" width="70" height="30" as="geometry" />
        </mxCell>
        <mxCell id="dyBA7OJeBolkiEJ0vb4M-22" value="Trả xe" style="text;html=1;strokeColor=none;fillColor=none;align=center;verticalAlign=middle;whiteSpace=wrap;rounded=0;fontSize=15;" vertex="1" parent="1">
          <mxGeometry x="547.5" y="120" width="75" height="30" as="geometry" />
        </mxCell>
        <mxCell id="dyBA7OJeBolkiEJ0vb4M-23" value="Phản hồi" style="text;html=1;strokeColor=none;fillColor=none;align=center;verticalAlign=middle;whiteSpace=wrap;rounded=0;fontSize=15;" vertex="1" parent="1">
          <mxGeometry x="555" y="160" width="65" height="30" as="geometry" />
        </mxCell>
        <mxCell id="dyBA7OJeBolkiEJ0vb4M-24" value="Yêu cầu báo cáo" style="text;html=1;strokeColor=none;fillColor=none;align=center;verticalAlign=middle;whiteSpace=wrap;rounded=0;fontSize=15;" vertex="1" parent="1">
          <mxGeometry x="557.5" y="214" width="60" height="30" as="geometry" />
        </mxCell>
      </root>
    </mxGraphModel>
  </diagram>
</mxfile>
